<svg xmlns="http://www.w3.org/2000/svg" xmlns:xlink="http://www.w3.org/1999/xlink" version="1.1" x="0px" y="0px" viewBox="0 0 333.2 60.2" xml:space="preserve" class="style0"><style>.style0{enable-background:	new 0 0 333.2 60.2;}</style><style type="text/css">.st0{fill:#FFE111;}.st1{fill:#383739;}</style><g><path class="st0" d="M68.8 18.9c2.1-0.3 4.6-0.6 7.4-0.6c5 0 8.6 1.2 10.9 3.4c2.4 2.2 3.8 5.3 3.8 9.7c0 4.4-1.4 8-3.9 10.5 c-2.5 2.5-6.7 3.9-11.9 3.9c-2.5 0-4.6-0.1-6.3-0.3V18.9z M72.2 42.7c0.9 0.2 2.2 0.2 3.5 0.2c7.4 0 11.5-4.2 11.5-11.4 c0-6.4-3.6-10.4-10.9-10.4c-1.8 0-3.2 0.2-4.1 0.4V42.7z"/><path class="st0" d="M101.4 36.4c0.1 4.8 3.1 6.7 6.6 6.7c2.5 0 4-0.4 5.4-1l0.6 2.5c-1.2 0.6-3.4 1.2-6.4 1.2 c-6 0-9.5-3.9-9.5-9.8c0-5.8 3.4-10.4 9.1-10.4c6.3 0 8 5.6 8 9.1c0 0.7-0.1 1.3-0.1 1.6H101.4z M111.7 33.9c0-2.2-0.9-5.7-4.9-5.7 c-3.6 0-5.1 3.3-5.4 5.7H111.7z"/><path class="st0" d="M123 41.9c1 0.7 2.9 1.4 4.6 1.4c2.6 0 3.8-1.3 3.8-2.9c0-1.7-1-2.6-3.6-3.6c-3.5-1.2-5.1-3.2-5.1-5.5 c0-3.1 2.5-5.7 6.7-5.7c2 0 3.7 0.6 4.8 1.2l-0.9 2.6c-0.8-0.5-2.2-1.1-4-1.1c-2.1 0-3.2 1.2-3.2 2.6c0 1.6 1.2 2.3 3.7 3.3 c3.4 1.3 5.1 3 5.1 5.8c0 3.4-2.6 5.8-7.2 5.8c-2.1 0-4.1-0.5-5.4-1.3L123 41.9z"/><path class="st0" d="M146.8 35L146.8 35c0.6-0.7 1.2-1.5 1.8-2.2l5.7-6.7h4.2l-7.5 8l8.5 11.4h-4.3l-6.7-9.3l-1.8 2v7.3h-3.5V17.1 h3.5V35z"/><path class="st1" d="M165.7 41.2c1.6 1 3.8 1.8 6.2 1.8c3.6 0 5.6-1.9 5.6-4.6c0-2.5-1.4-4-5.1-5.4c-4.4-1.6-7.1-3.8-7.1-7.6 c0-4.2 3.5-7.3 8.7-7.3c2.8 0 4.8 0.6 6 1.3l-1 2.8c-0.9-0.5-2.7-1.3-5.1-1.3c-3.7 0-5.1 2.2-5.1 4c0 2.5 1.6 3.8 5.4 5.2 c4.6 1.8 6.9 4 6.9 7.9c0 4.2-3.1 7.8-9.4 7.8c-2.6 0-5.4-0.8-6.9-1.7L165.7 41.2z"/><path class="st1" d="M189.8 32.4c0-2.5-0.1-4.5-0.2-6.3h3.2l0.2 3.3h0.1c1.4-2.4 3.7-3.8 6.9-3.8c4.7 0 8.2 4 8.2 9.8 c0 7-4.2 10.4-8.8 10.4c-2.6 0-4.8-1.1-6-3h-0.1v10.5h-3.5V32.4z M193.3 37.6c0 0.5 0.1 1 0.2 1.4c0.6 2.4 2.8 4.1 5.3 4.1 c3.7 0 5.9-3 5.9-7.5c0-3.9-2-7.2-5.8-7.2c-2.4 0-4.6 1.7-5.3 4.4c-0.1 0.4-0.2 1-0.2 1.4V37.6z"/><path class="st1" d="M234.1 35.6c0 7.2-5 10.3-9.6 10.3c-5.2 0-9.3-3.8-9.3-10c0-6.5 4.2-10.3 9.6-10.3 C230.3 25.7 234.1 29.7 234.1 35.6z M218.7 35.8c0 4.2 2.4 7.4 5.9 7.4c3.4 0 5.9-3.2 5.9-7.5c0-3.3-1.6-7.4-5.8-7.4 C220.5 28.3 218.7 32.2 218.7 35.8z"/><path class="st1" d="M246.8 20.6v5.6h5v2.7h-5v10.4c0 2.4 0.7 3.8 2.6 3.8c0.9 0 1.6-0.1 2-0.2l0.2 2.6c-0.7 0.3-1.8 0.5-3.1 0.5 c-1.6 0-3-0.5-3.8-1.5c-1-1-1.4-2.8-1.4-5V28.8h-3v-2.7h3v-4.6L246.8 20.6z"/><path class="st1" d="M264 20.6v5.6h5v2.7h-5v10.4c0 2.4 0.7 3.8 2.6 3.8c0.9 0 1.6-0.1 2-0.2l0.2 2.6c-0.7 0.3-1.8 0.5-3.1 0.5 c-1.6 0-3-0.5-3.8-1.5c-1-1-1.4-2.8-1.4-5V28.8h-3v-2.7h3v-4.6L264 20.6z"/><path class="st1" d="M280.9 20.7c0 1.2-0.8 2.2-2.2 2.2c-1.2 0-2.1-1-2.1-2.2c0-1.2 0.9-2.2 2.2-2.2 C280.1 18.5 280.9 19.4 280.9 20.7z M277 45.5V26.1h3.5v19.4H277z"/><path class="st1" d="M290.4 31.4c0-2 0-3.6-0.2-5.2h3.1l0.2 3.2h0.1c1-1.8 3.2-3.6 6.4-3.6c2.7 0 6.8 1.6 6.8 8.2v11.6h-3.5V34.3 c0-3.1-1.2-5.7-4.5-5.7c-2.3 0-4.1 1.6-4.7 3.6c-0.2 0.4-0.2 1-0.2 1.6v11.6h-3.5V31.4z"/><path class="st1" d="M333.2 26.1c-0.1 1.4-0.2 3-0.2 5.3v11.2c0 4.4-0.9 7.2-2.8 8.8c-1.9 1.8-4.6 2.3-7 2.3 c-2.3 0-4.9-0.6-6.4-1.6l0.9-2.7c1.3 0.8 3.3 1.5 5.7 1.5c3.6 0 6.2-1.9 6.2-6.8v-2.2h-0.1c-1.1 1.8-3.2 3.2-6.2 3.2 c-4.8 0-8.2-4.1-8.2-9.4c0-6.6 4.3-10.3 8.7-10.3c3.4 0 5.2 1.8 6 3.4h0.1l0.2-2.9H333.2z M329.6 33.8c0-0.6 0-1.1-0.2-1.6 c-0.6-2-2.4-3.7-4.9-3.7c-3.4 0-5.8 2.8-5.8 7.3c0 3.8 1.9 7 5.7 7c2.2 0 4.1-1.4 4.9-3.6c0.2-0.6 0.3-1.3 0.3-1.9V33.8z"/><g><path class="st1" d="M2.5 59.8c6.8-7.1 13.6-14.3 20.4-21.4c1.3-1.4-0.8-3.4-2.1-2.1C14 43.4 7.2 50.6 0.4 57.7 C-0.9 59.1 1.2 61.1 2.5 59.8L2.5 59.8z"/></g><path class="st0" d="M35.7 13.4c1.7 1.9-1 4.4-2.8 2.6c-1.4-1.3-3.4 0.8-2.1 2.1c2 1.9 4.8 1.9 6.9 0.1c2-1.8 1.8-5 0.1-6.9 C36.5 9.9 34.4 12 35.7 13.4L35.7 13.4z"/><path class="st1" d="M26.3 20.6c-3-3.4-3-9.1 0.1-12.5c3.4-3.8 9.2-3.3 12.7 0c0-0.7 0-1.4 0-2.1c-5 4.9-9.9 9.7-14.9 14.6 c-1.3 1.3 0.7 3.4 2.1 2.1c5-4.9 9.9-9.7 14.9-14.6c0.6-0.5 0.6-1.5 0-2.1c-4.8-4.4-11.4-4.5-16.4-0.4c-5 4.1-4.5 12.6-0.6 17.1 C25.5 24.1 27.6 22 26.3 20.6z"/><path class="st0" d="M31.5 22.6c-0.4 1.5-0.7 2.9-1.1 4.4c-0.4 1.8 2.4 2.6 2.8 0.8c0.4-1.5 0.7-2.9 1.1-4.4 C34.7 21.5 31.9 20.8 31.5 22.6L31.5 22.6z"/><path class="st0" d="M43.8 14.5c1.4 0.1 2.8 0.2 4.2 0.2c1.9 0.1 1.9-2.8 0-2.9c-1.4-0.1-2.8-0.2-4.2-0.2 C41.9 11.5 41.9 14.4 43.8 14.5L43.8 14.5z"/><path class="st0" d="M39.8 21.5c1.1 1.1 2.2 2.1 3.2 3.2c1.3 1.3 3.4-0.7 2.1-2.1c-1.1-1.1-2.2-2.1-3.2-3.2 C40.5 18.1 38.4 20.2 39.8 21.5L39.8 21.5z"/><g><path class="st1" d="M22.4 0.4C17.1 5.8 11.7 11.1 6.4 16.5C1.6 21.3 6.3 24.7 9.9 28c11.4 10.6 22.8 21.2 34.1 31.8 c1.4 1.3 3.5-0.8 2.1-2.1C35.7 48 25.3 38.3 14.9 28.6c-2.1-2-4.2-3.9-6.3-5.9c-1.9-1.8-1.1-3.2 0.6-4.9 c5.1-5.1 10.2-10.2 15.4-15.4C25.8 1.2 23.8-0.9 22.4 0.4L22.4 0.4z"/><path class="st1" d="M24.3 7.9c-1.1-1.1-2.2-2.2-3.4-3.3c-1.3-1.3-3.4 0.7-2.1 2.1c1.1 1.1 2.2 2.2 3.3 3.3 C23.6 11.3 25.7 9.2 24.3 7.9L24.3 7.9z"/><path class="st1" d="M28.1 4c-1.2-1.2-2.4-2.3-3.6-3.5c-1.3-1.3-3.4 0.7-2.1 2.1C23.6 3.7 24.8 4.8 26 6C27.4 7.3 29.5 5.3 28.1 4 L28.1 4z"/></g></g></svg>
