<?xml version="1.0" encoding="utf-8"?>
<!-- Generator: Adobe Illustrator 19.1.0, SVG Export Plug-In . SVG Version: 6.00 Build 0)  -->
<svg version="1.1" id="Layer_1" xmlns="http://www.w3.org/2000/svg" xmlns:xlink="http://www.w3.org/1999/xlink" x="0px" y="0px"
	 viewBox="0 0 83.4 114.5" style="enable-background:new 0 0 83.4 114.5;" xml:space="preserve">
<style type="text/css">
	.st0{fill:#595A5C;}
</style>
<g>
	<path class="st0" d="M45.1,37.4c-0.3,4.8-7.4,4.6-7.5-0.2c-0.1-3.6-5.7-3.7-5.7,0c0.1,5.3,4,9.2,9.3,9.5c5.3,0.3,9.2-4.4,9.5-9.3
		C51,33.8,45.3,33.8,45.1,37.4L45.1,37.4z"/>
	<path class="st0" d="M24.4,34.5c0.6-8.8,8.4-16.5,17.2-17c9.7-0.5,17.1,8.2,17.5,17.4c0.9-0.9,1.9-1.9,2.8-2.8
		c-13.4-0.1-26.9-0.3-40.3-0.4c-3.7,0-3.7,5.6,0,5.7c13.4,0.1,26.9,0.2,40.3,0.4c1.5,0,2.9-1.3,2.8-2.8c-0.5-12.7-9.5-21.7-21.8-23
		C30.5,10.5,19.5,23,18.7,34.5C18.5,38.1,24.1,38.1,24.4,34.5z"/>
	<path class="st0" d="M26.7,44.3c-2.5,1.5-5,3-7.5,4.6c-3.1,1.9-0.3,6.8,2.8,4.9c2.5-1.5,5-3,7.5-4.6C32.6,47.3,29.8,42.4,26.7,44.3
		L26.7,44.3z"/>
	<path class="st0" d="M54.5,50.1c1.8,2,3.6,4.1,5.4,6.1c2.4,2.7,6.4-1.3,4-4c-1.8-2-3.6-4.1-5.4-6.1C56.1,43.4,52.1,47.4,54.5,50.1
		L54.5,50.1z"/>
	<path class="st0" d="M39.6,54.2c0,2.9,0.1,5.9,0.1,8.8c0,3.7,5.7,3.7,5.7,0c0-2.9-0.1-5.9-0.1-8.8C45.2,50.5,39.5,50.5,39.6,54.2
		L39.6,54.2z"/>
	<path class="st0" d="M41.7,114.5l-1.7-1.9c-1.6-1.8-40-45.2-40-68.8C0,19.7,18.7,0,41.7,0c23,0,41.7,19.7,41.7,43.8
		c0,23.6-38.4,66.9-40,68.8L41.7,114.5z M41.7,4.9c-20.4,0-37.1,17.5-37.1,39c0,19,29.6,54.8,37.1,63.5c7.5-8.7,37.1-44.5,37.1-63.5
		C78.8,22.3,62.2,4.9,41.7,4.9z"/>
</g>
</svg>
