<?xml version="1.0" encoding="utf-8"?>
<!-- Generator: Adobe Illustrator 16.0.0, SVG Export Plug-In . SVG Version: 6.00 Build 0)  -->
<!DOCTYPE svg PUBLIC "-//W3C//DTD SVG 1.1//EN" "http://www.w3.org/Graphics/SVG/1.1/DTD/svg11.dtd">
<svg version="1.1" id="Layer_1" xmlns="http://www.w3.org/2000/svg" xmlns:xlink="http://www.w3.org/1999/xlink" x="0px" y="0px"
	viewBox="0 0 81.669 77.823" enable-background="new 0 0 81.669 77.823" xml:space="preserve">
<g>
	<g>
		<path fill="#595A5C" d="M60.646,34.8c-6.21,0-11.263,5.053-11.263,11.262c0,6.211,5.053,11.263,11.263,11.263
			s11.263-5.052,11.263-11.263C71.909,39.853,66.856,34.8,60.646,34.8z M60.646,54.322c-4.554,0-8.259-3.706-8.259-8.26
			c0-4.553,3.705-8.259,8.259-8.259s8.259,3.706,8.259,8.259C68.905,50.616,65.2,54.322,60.646,54.322z M73.054,50.393l-1.396,2.657
			c4.455,2.342,7.009,5.844,7.009,9.606c0,6.706-8.083,12.164-18.02,12.164c-9.936,0-18.02-5.458-18.02-12.164
			c0-3.763,2.553-7.265,7.005-9.604l-1.397-2.659c-5.392,2.835-8.61,7.419-8.61,12.263c0,8.361,9.43,15.166,21.022,15.166
			c11.592,0,21.022-6.805,21.022-15.166C81.669,57.813,78.448,53.227,73.054,50.393z M34.828,3.004
			c15.573,0,28.545,11.251,31.273,26.046c1.083,0.199,2.148,0.445,3.188,0.758C66.849,12.973,52.327,0,34.828,0
			C15.624,0,0,15.624,0,34.827c0,6.56,1.832,12.93,5.303,18.467L0.934,69.6l16.712-4.479c4.617,2.624,9.784,4.146,15.084,4.469
			c-0.398-1.012-0.736-2.049-1.026-3.109c-4.61-0.454-9.081-1.893-13.077-4.263l-0.544-0.324L5.181,65.352L8.549,52.78l-0.367-0.56
			c-3.388-5.182-5.179-11.193-5.179-17.394C3.003,17.282,17.28,3.004,34.828,3.004z"/>
	</g>
</g>
</svg>
