<?xml version="1.0" encoding="UTF-8" standalone="no"?>
<!-- Created with Inkscape (http://www.inkscape.org/) -->

<svg
   xmlns:dc="http://purl.org/dc/elements/1.1/"
   xmlns:cc="http://creativecommons.org/ns#"
   xmlns:rdf="http://www.w3.org/1999/02/22-rdf-syntax-ns#"
   xmlns:svg="http://www.w3.org/2000/svg"
   xmlns="http://www.w3.org/2000/svg"
   version="1.1"
   width="23.227501"
   height="17.973749"
   id="svg3903">
  <defs
     id="defs3905">
    <clipPath
       id="clipPath720">
      <path
         d="M 0,727 1024,727 1024,0 0,0 0,727 z"
         id="path722" />
    </clipPath>
  </defs>
  <metadata
     id="metadata3908">
    <rdf:RDF>
      <cc:Work
         rdf:about="">
        <dc:format>image/svg+xml</dc:format>
        <dc:type
           rdf:resource="http://purl.org/dc/dcmitype/StillImage" />
        <dc:title></dc:title>
      </cc:Work>
    </rdf:RDF>
  </metadata>
  <g
     transform="translate(-695.8237,-287.63872)"
     id="layer1">
    <g
       transform="matrix(1.25,0,0,-1.25,-115.0863,640.4151)"
       id="g716">
      <g
         clip-path="url(#clipPath720)"
         id="g718">
        <g
           transform="translate(649.624,271.7871)"
           id="g724">
          <path
             d="M 0,0 C 0.059,0.042 0.141,0.089 0.207,0.117 0.234,0.128 0.266,0.144 0.289,0.156 L 3.158,1.722 C 3.424,1.866 3.598,2.135 3.623,2.435 3.647,2.735 3.521,3.029 3.283,3.216 2.51,3.825 2.248,5.168 2.248,5.872 l 0,1.895 c 0,0.66 1.19,1.769 2.488,1.769 0.649,0 1.246,-0.22 1.719,-0.587 0.354,0.113 0.76,0.113 1.131,0.136 -0.649,0.758 -1.762,1.349 -2.85,1.349 -1.675,0 -3.384,-1.413 -3.384,-2.667 l 0,-1.895 c 0,-0.911 0.328,-2.536 1.377,-3.361 l -2.87,-1.567 c 0,0 -0.755,-0.312 -0.755,-0.757 l 0,-1.124 c 0,-0.418 0.337,-0.759 0.755,-0.759 l 1.491,0 c 0.105,0.396 0.189,0.691 0.462,0.898 L 0,-0.798 0,0 z m 16.926,0.944 -2.867,1.567 c 1.05,0.825 1.379,2.45 1.379,3.361 l 0,1.895 c 0,1.254 -1.711,2.667 -3.387,2.667 -1.088,0 -2.201,-0.591 -2.85,-1.349 0.369,-0.023 0.778,-0.023 1.129,-0.136 0.473,0.367 1.072,0.587 1.721,0.587 1.299,0 2.488,-1.109 2.488,-1.769 l 0,-1.895 c 0,-0.704 -0.262,-2.047 -1.035,-2.656 -0.238,-0.187 -0.367,-0.481 -0.34,-0.781 0.024,-0.3 0.199,-0.569 0.465,-0.713 L 16.498,0.156 C 16.521,0.144 16.553,0.128 16.58,0.117 16.646,0.089 16.729,0.042 16.787,0 l 0,-0.798 -1.812,0 c 0.273,-0.207 0.355,-0.502 0.463,-0.898 l 1.488,0 c 0.42,0 0.76,0.341 0.76,0.759 l 0,1.124 c 0,0.445 -0.76,0.757 -0.76,0.757 m -3.506,-3.991 -9.428,0 0,0.802 c 0.065,0.048 0.155,0.101 0.227,0.135 0.021,0.008 0.041,0.019 0.062,0.031 l 2.899,1.572 c 0.265,0.143 0.439,0.41 0.466,0.709 C 7.674,0.501 7.549,0.794 7.313,0.981 6.562,1.586 6.238,2.923 6.238,3.636 l 0,1.896 c 0,0.645 1.217,1.754 2.491,1.754 1.293,0 2.443,-1.095 2.443,-1.754 l 0,-1.896 C 11.172,2.933 10.953,1.59 10.18,0.979 9.941,0.794 9.813,0.5 9.838,0.2 c 0.027,-0.302 0.201,-0.568 0.467,-0.713 l 2.826,-1.566 c 0.025,-0.014 0.057,-0.029 0.082,-0.041 0.066,-0.027 0.148,-0.074 0.207,-0.115 l 0,-0.812 z m 0.141,1.756 -2.827,1.565 c 1.051,0.828 1.336,2.452 1.336,3.362 l 0,1.896 c 0,1.255 -1.668,2.653 -3.341,2.653 -1.676,0 -3.387,-1.398 -3.387,-2.653 l 0,-1.896 c 0,-0.828 0.349,-2.503 1.41,-3.354 L 3.854,-1.291 c 0,0 -0.758,-0.337 -0.758,-0.759 l 0,-1.137 c 0,-0.418 0.34,-0.758 0.758,-0.758 l 9.707,0 c 0.418,0 0.757,0.34 0.757,0.758 l 0,1.137 c 0,0.447 -0.757,0.759 -0.757,0.759"
             id="path726"
             style="fill:#808184;fill-opacity:1;fill-rule:nonzero;stroke:none" />
        </g>
      </g>
    </g>
  </g>
</svg>
