<?xml version="1.0" encoding="utf-8"?>
<!-- Generator: Adobe Illustrator 19.1.0, SVG Export Plug-In . SVG Version: 6.00 Build 0)  -->
<svg version="1.1" id="Layer_1" xmlns="http://www.w3.org/2000/svg" xmlns:xlink="http://www.w3.org/1999/xlink" x="0px" y="0px"
	 viewBox="0 0 42.1 65.6" style="enable-background:new 0 0 42.1 65.6;" xml:space="preserve">
<style type="text/css">
	.st0{fill:#FFFFFF;}
	.st1{fill:#FEE007;}
	.st2{fill:#424143;}
</style>
<g>
	<g>
		<path class="st0" d="M39.8,22.5c0,10.3-8.2,18.6-18.4,18.6c-10.1,0-18.3-8.3-18.3-18.6c0-10.3,8.2-18.6,18.3-18.6
			C31.6,3.9,39.8,12.2,39.8,22.5z"/>
		<path class="st1" d="M42.1,21c0-11.6-9.4-21-21-21C9.4,0,0,9.4,0,21c0,10,15.7,36.8,20,44c0.2,0.4,0.6,0.6,1.1,0.6
			c0.4,0,0.8-0.2,1.1-0.6C26.4,57.9,42.1,31.1,42.1,21z M21,37.3c-9,0-16.3-7.3-16.3-16.3c0-9,7.3-16.3,16.3-16.3
			c9,0,16.3,7.3,16.3,16.3C37.3,30,30,37.3,21,37.3z"/>
	</g>
	<g>
		<path class="st1" d="M25.1,15.7c0.6,0.7-0.4,1.6-1,1c-0.5-0.5-1.3,0.3-0.8,0.8c0.7,0.7,1.8,0.7,2.6,0c0.8-0.7,0.7-1.9,0-2.6
			C25.4,14.4,24.7,15.2,25.1,15.7L25.1,15.7z"/>
		<path class="st1" d="M23.6,19.2c-0.1,0.5-0.3,1.1-0.4,1.6c-0.2,0.7,0.9,1,1.1,0.3c0.2-0.7,0.3-1.2,0.4-1.6
			C24.8,18.8,23.7,18.5,23.6,19.2L23.6,19.2z"/>
		<path class="st1" d="M28.2,16.2c0.5,0,1.1,0.1,1.6,0.1c0.7,0,0.7-1.1,0-1.1c-0.5,0-1.1-0.1-1.6-0.1C27.4,15,27.5,16.1,28.2,16.2
			L28.2,16.2z"/>
		<path class="st1" d="M26.5,18.6c0.4,0.4,0.8,0.8,1.2,1.2c0.5,0.5,1.3-0.3,0.8-0.8c-0.4-0.4-0.8-0.8-1.2-1.2
			C26.8,17.3,26,18.1,26.5,18.6L26.5,18.6z"/>
		<path class="st2" d="M28.1,31.4C24.4,28,20.7,24.5,17,21.1c-0.7-0.7-1.4-1.3-2.1-2c-0.8-0.7,0.2-1.5,0.7-2
			c1.2-1.2,2.4-2.4,3.6-3.6c0.3,0.3,0.6,0.6,0.8,0.8c-0.6,1.6-0.2,3.6,0.9,4.9c0.2,0.2,0.4,0.2,0.6,0.1c0.1,0,0.2-0.1,0.2-0.1
			c1.9-1.8,3.7-3.6,5.6-5.5c0.2-0.2,0.2-0.6,0-0.8c-1.5-1.3-3.4-1.6-5-0.9c-0.4-0.4-0.8-0.8-1.2-1.2c-0.1-0.1-0.2-0.1-0.3-0.1
			c0,0-0.1,0-0.1,0c0,0,0,0,0,0c-0.1,0-0.2,0-0.4,0.2c-1.9,1.9-3.9,3.9-5.8,5.8c-0.6,0.6-1.6,1.5-0.9,2.5c0.4,0.6,1,1.1,1.6,1.6
			c1.4,1.3,2.8,2.6,4.2,3.9c-2.1,2.2-4.2,4.4-6.3,6.7c-0.5,0.5,0.3,1.3,0.8,0.8c2.1-2.2,4.2-4.5,6.4-6.7c2.4,2.3,4.8,4.5,7.3,6.8
			C27.8,32.7,28.6,31.9,28.1,31.4z M26,13.4c-1.6,1.5-3.1,3-4.7,4.6c-0.8-1.3-0.7-3.1,0.3-4.2C22.8,12.5,24.7,12.5,26,13.4z
			 M21.1,12.8c-0.2,0.2-0.4,0.3-0.5,0.5c-0.2-0.2-0.4-0.4-0.6-0.6c0.2-0.2,0.4-0.4,0.7-0.7c0.2,0.2,0.4,0.4,0.6,0.6
			C21.2,12.7,21.1,12.7,21.1,12.8z"/>
	</g>
</g>
</svg>
